<?xml version="1.0" encoding="utf-8"?>
<!-- Svg Vector Icons : http://www.onlinewebfonts.com/icon -->
<!DOCTYPE svg PUBLIC "-//W3C//DTD SVG 1.1//EN" "http://www.w3.org/Graphics/SVG/1.1/DTD/svg11.dtd">
<svg version="1.1" xmlns="http://www.w3.org/2000/svg" xmlns:xlink="http://www.w3.org/1999/xlink" x="0px" y="0px" viewBox="0 0 1000 1000" enable-background="new 0 0 1000 1000" xml:space="preserve">
<metadata> Svg Vector Icons : http://www.onlinewebfonts.com/icon </metadata>
<g><g transform="translate(0.000000,512.000000) scale(0.100000,-0.100000)"><path d="M2546.2,3293.5c-5.7-1697.8-7.7-1730.3-47.9-1871.9c-61.2-216.3-111-338.8-206.7-505.3L2205.5,765v-2773.5V-4780H5000h2794.5v2777.3c0,2683.5-1.9,2779.2-36.4,2827.1c-122.5,176.1-252.6,524.5-287.1,777.1c-13.4,95.7-21,715.9-21,1783.9V5020h-698.6h-698.6v-482.3c0-543.6-17.2-666.1-116.7-869c-76.6-155-241.2-331.1-390.5-419.2c-336.9-199.1-754.1-199.1-1091,0c-149.3,88.1-313.9,264.1-390.5,419.2c-99.5,202.9-116.8,325.4-116.8,869V5020h-698.6h-696.7L2546.2,3293.5z M4827.7,1000.5V-396.8H4043h-784.8v1397.3v1397.3H4043h784.8V1000.5z M6741.8,1000.5V-396.8H5957h-784.8v1397.3v1397.3H5957h784.8V1000.5z"/><path d="M3775,904.8v-957h258.4h258.4v957v957h-258.4H3775V904.8z"/><path d="M5708.2,904.8v-957h258.4H6225v957v957h-258.4h-258.4V904.8z"/><path d="M1738.4,301.8c-51.7-36.4-166.5-103.4-254.6-149.3L1325,72.1V-2353v-2427h258.4h258.4v2574.4c0,1416.4-1.9,2574.4-5.7,2574.4C1834.1,368.8,1790.1,338.2,1738.4,301.8z"/><path d="M8158.2-2205.6V-4780h258.4H8675v2427v2427l-126.3,61.3c-70.8,36.4-176.1,95.7-235.4,134c-59.3,38.3-118.7,78.5-130.1,86.1C8163.9,366.9,8158.2-149.9,8158.2-2205.6z"/></g></g>
</svg>