<?xml version="1.0" encoding="UTF-8" standalone="no"?>
<!-- Created with Inkscape (http://www.inkscape.org/) -->

<svg
   xmlns:dc="http://purl.org/dc/elements/1.1/"
   xmlns:cc="http://creativecommons.org/ns#"
   xmlns:rdf="http://www.w3.org/1999/02/22-rdf-syntax-ns#"
   xmlns:svg="http://www.w3.org/2000/svg"
   xmlns="http://www.w3.org/2000/svg"
   xmlns:sodipodi="http://sodipodi.sourceforge.net/DTD/sodipodi-0.dtd"
   xmlns:inkscape="http://www.inkscape.org/namespaces/inkscape"
   id="svg3489"
   version="1.1"
   inkscape:version="0.91 r13725"
   width="304.86118"
   height="499.70862"
   viewBox="0 0 304.86118 499.70862"
   sodipodi:docname="silhouette-basket-01.svg">
  <title
     id="title3340">Silhouette Basket 01</title>
  <metadata
     id="metadata3495">
    <rdf:RDF>
      <cc:Work
         rdf:about="">
        <dc:format>image/svg+xml</dc:format>
        <dc:type
           rdf:resource="http://purl.org/dc/dcmitype/StillImage" />
        <dc:title>Silhouette Basket 01</dc:title>
        <cc:license
           rdf:resource="http://creativecommons.org/publicdomain/zero/1.0/" />
        <dc:date>2017-03-19</dc:date>
        <dc:creator>
          <cc:Agent>
            <dc:title>JLouis</dc:title>
          </cc:Agent>
        </dc:creator>
        <dc:rights>
          <cc:Agent>
            <dc:title>Domaine pubic</dc:title>
          </cc:Agent>
        </dc:rights>
        <dc:publisher>
          <cc:Agent>
            <dc:title>inkscape</dc:title>
          </cc:Agent>
        </dc:publisher>
        <dc:subject>
          <rdf:Bag>
            <rdf:li>silhouette</rdf:li>
            <rdf:li>Basketball</rdf:li>
            <rdf:li>player</rdf:li>
            <rdf:li>sport</rdf:li>
            <rdf:li>basket</rdf:li>
            <rdf:li>joueurs</rdf:li>
          </rdf:Bag>
        </dc:subject>
        <dc:description>Basketball player in silhouette - Joueur de basket en silhouette</dc:description>
      </cc:Work>
      <cc:License
         rdf:about="http://creativecommons.org/publicdomain/zero/1.0/">
        <cc:permits
           rdf:resource="http://creativecommons.org/ns#Reproduction" />
        <cc:permits
           rdf:resource="http://creativecommons.org/ns#Distribution" />
        <cc:permits
           rdf:resource="http://creativecommons.org/ns#DerivativeWorks" />
      </cc:License>
    </rdf:RDF>
  </metadata>
  <defs
     id="defs3493" />
  <sodipodi:namedview
     pagecolor="#ffffff"
     bordercolor="#666666"
     borderopacity="1"
     objecttolerance="10"
     gridtolerance="10"
     guidetolerance="10"
     inkscape:pageopacity="0"
     inkscape:pageshadow="2"
     inkscape:window-width="1235"
     inkscape:window-height="756"
     id="namedview3491"
     showgrid="false"
     fit-margin-top="0"
     fit-margin-left="0"
     fit-margin-right="0"
     fit-margin-bottom="0"
     inkscape:zoom="0.8828125"
     inkscape:cx="146.1265"
     inkscape:cy="233.85022"
     inkscape:window-x="0"
     inkscape:window-y="0"
     inkscape:window-maximized="1"
     inkscape:current-layer="svg3489" />
  <g
     id="g3499"
     transform="translate(-39.108015,-70)">
    <path
       style="fill:#e9f3f8"
       d="m 268.77233,569.15004 c -3.1296,-1.35447 -5.02233,-3.84604 -5.02233,-6.61137 0,-3.4496 4.86519,-10.01986 8.4375,-11.39452 1.54687,-0.59525 2.8125,-1.97314 2.8125,-3.06199 0,-1.08883 -0.5625,-1.63206 -1.25,-1.20716 -2.19488,1.35651 -1.33952,-1.40651 1.12621,-3.63797 4.92143,-4.45383 5.529,-20.60581 0.96085,-25.54349 -3.95916,-4.27945 -18.78124,-12.1808 -29.72757,-15.84716 -5.41567,-1.81393 -11.60928,-4.95858 -14.375,-7.29854 -2.67272,-2.26129 -8.51574,-6.5355 -12.98449,-9.49827 -7.60794,-5.04403 -10.3745,-7.39038 -23.13585,-19.62181 -6.63886,-6.36316 -15.54603,-17.126 -19.1225,-23.10639 C 174.90581,439.66962 172.88285,437.5 171.9962,437.5 167.01828,437.5 155,427.37857 155,423.18632 c 0,-0.94968 -2.25,-4.1396 -5,-7.08871 -2.75,-2.9491 -5,-6.28068 -5,-7.40352 0,-1.12284 -1.43221,-3.96023 -3.18269,-6.3053 -12.19225,-16.33377 -19.65611,-26.91043 -22.61924,-32.0526 -1.8893,-3.27865 -4.6884,-7.64869 -6.22022,-9.71119 -6.84148,-9.2116 -14.148626,-37.12531 -14.205429,-54.26556 -0.01754,-5.29163 -0.812834,-8.01487 -3.650517,-12.5 -2.544125,-4.02115 -3.897954,-8.15505 -4.531319,-13.8363 l -0.903221,-8.10188 -3.281183,3.81199 C 79.092337,284.23027 62.278456,298.75 59.752718,298.75 c -4.029609,0 -10.452057,-5.56562 -13.303304,-11.52851 -4.416578,-9.2365 -7.682212,-45.82627 -7.282481,-81.59649 0.325293,-29.10912 0.429274,-30.20416 3.501557,-36.875 1.807226,-3.92403 5.956935,-9.5577 9.667745,-13.125 6.073299,-5.83843 7.094776,-6.33345 15.511503,-7.5172 7.979062,-1.1222 9.195743,-1.65461 10.63273,-4.65278 1.361821,-2.84135 1.324102,-3.84327 -0.234645,-6.2328 -1.021521,-1.56597 -2.456516,-5.53318 -3.188879,-8.81603 -1.632888,-7.3195 -3.165878,-35.809834 -2.145572,-39.875059 1.184275,-4.718527 8.317359,-11.118343 16.875998,-15.141176 6.800717,-3.196554 8.925323,-3.627214 15.12224,-3.065298 11.85842,1.075285 21.68194,8.72568 23.75305,18.498499 0.64713,3.053514 1.86605,7.801844 2.70874,10.551844 2.33764,7.62862 1.74054,16.68322 -1.37837,20.90177 -4.86002,6.57352 -3.37304,7.73677 10.32703,8.07872 6.69624,0.16715 13.26541,0.88748 14.59819,1.60076 1.33276,0.71328 6.81825,1.88707 12.18997,2.60845 17.41389,2.33855 28.91667,10.54085 37.33742,26.62426 2.75648,5.26484 5.13476,7.79368 10.23881,10.88705 3.65657,2.21613 7.76347,5.5954 9.12645,7.50952 4.70694,6.61027 13.8692,12.15803 23.34091,14.13294 9.76473,2.03601 13.84303,3.86104 24.09819,10.7839 7.36502,4.97185 20.15151,11.76423 24.5823,13.05849 1.48902,0.43496 3.06909,0.20545 3.51127,-0.51001 0.44219,-0.71548 2.44756,-1.30085 4.45638,-1.30085 2.73864,0 3.83457,0.70365 4.3805,2.8125 0.51347,1.98345 3.74455,4.31971 10.96132,7.92565 8.85615,4.42509 10.28973,5.59439 10.65306,8.68929 0.2309,1.96686 1.49652,4.94492 2.8125,6.61791 2.89062,3.67484 3.19692,12.41351 0.55742,15.90324 -1.00937,1.33452 -1.85312,4.51387 -1.875,7.06521 -0.023,2.68691 -0.9602,5.57975 -2.22725,6.875 -1.20312,1.22991 -3.28461,4.39044 -4.62552,7.02339 -3.07227,6.03255 -8.16947,10.36655 -16.93698,14.40101 -9.33621,4.29615 -24.02172,4.50911 -32.91187,0.47729 -9.89653,-4.48825 -15.37724,-9.67177 -19.857,-18.78025 -3.54213,-7.20205 -4.10613,-9.64557 -4.10613,-17.78973 0,-8.02979 0.57538,-10.60154 3.84938,-17.20572 2.11716,-4.27063 3.24216,-7.80703 2.5,-7.85865 -0.74215,-0.0516 -4.44313,-0.23609 -8.22438,-0.40993 -3.78125,-0.17382 -8.5625,-1.19007 -10.625,-2.25832 -2.0625,-1.06825 -6.12695,-2.33717 -9.03211,-2.81982 -2.93238,-0.48717 -6.37955,-2.08208 -7.74913,-3.58531 -9.96816,-10.94089 -14.16311,-14.64665 -25.81132,-22.80129 -10.52149,-7.36583 -13.02173,-8.66733 -12.37806,-6.44336 0.44362,1.53279 1.88063,4.30629 3.19337,6.16333 1.85594,2.62546 2.12021,4.07763 1.18818,6.52906 -1.7245,4.5358 1.22191,11.90337 8.45816,21.14981 7.32185,9.35583 15.25591,26.45459 15.25591,32.87813 0,2.70772 0.94621,5.73507 2.26166,7.236 5.31358,6.0628 13.70207,28.12232 13.33997,35.08056 -0.14303,2.74821 -1.92412,19.06384 -2.72913,25 -1.54487,11.39197 1.48925,55.28391 4.53725,65.63632 1.23943,4.20964 9.1963,13.73868 11.47199,13.73868 1.88004,0 11.3432,7.88917 21.11826,17.6057 9.99473,9.93489 16.09499,13.6443 22.43849,13.6443 2.16461,0 5.73585,0.91951 7.93609,2.04335 5.78668,2.95574 23.05618,16.25822 29.71622,22.89006 3.1437,3.13038 8.29296,7.79335 11.44281,10.36218 11.3845,9.2845 14.5633,24.65105 7.28715,35.22656 -7.40915,10.76882 -12.57462,11.59869 -22.34783,3.59028 l -5.4135,-4.43597 4.98717,9.91899 c 2.74294,5.45544 5.87956,10.6596 6.97028,11.56481 5.22803,4.33889 -1.63038,15.23276 -14.64468,23.2615 -4.95862,3.05908 -6.26192,4.65708 -7.4925,9.18676 -0.81934,3.01594 -2.70469,6.27963 -4.18969,7.25263 -2.86915,1.87994 -25.82691,3.48474 -29.16768,2.03889 z m 39.50831,-68.21254 c -1.11335,-1.54688 -3.15255,-4.90306 -4.53154,-7.4582 -2.4174,-4.4792 -6.47118,-7.84056 -7.82408,-6.48766 -0.35952,0.35952 -3.06496,-2.20595 -6.01207,-5.70107 -2.94713,-3.49511 -6.76738,-6.70837 -8.48946,-7.14058 C 274.16318,472.32776 265,464.89848 265,460.8342 c 0,-5.29225 -11.9242,-13.23214 -23.57667,-15.69884 -3.68592,-0.78026 -10.32437,-3.4446 -14.75212,-5.92074 -4.42774,-2.47612 -8.38905,-4.16345 -8.80291,-3.7496 -0.89406,0.89407 8,9.53498 9.81433,9.53498 3.1748,0 18.98122,11.82739 28.93155,21.64845 19.9383,19.67929 40.02256,34.61774 47.21158,35.11545 1.98239,0.13724 3.99507,0.64026 4.47263,1.11781 1.90137,1.90139 1.89049,0.70704 -0.0177,-1.94421 z"
       id="path3513"
       inkscape:connector-curvature="0" />
    <path
       style="fill:#d6e8f0"
       d="m 276.25,569.03892 c -8.68743,-0.42468 -12.5,-2.30832 -12.5,-6.17576 0,-3.72565 4.7271,-10.29121 8.4375,-11.71901 1.54687,-0.59525 2.8125,-1.97314 2.8125,-3.06199 0,-1.26135 -0.56696,-1.6321 -1.5625,-1.02171 -0.85938,0.52689 -0.57245,-0.42429 0.63761,-2.11374 4.03936,-5.63961 5.08963,-9.26479 4.86008,-16.77555 -0.18578,-6.07911 -0.8085,-8.05996 -3.3764,-10.74026 -4.4446,-4.63917 -19.89578,-13.14137 -28.16607,-15.49875 -3.84026,-1.09462 -9.26912,-3.52404 -12.06413,-5.39869 -15.46168,-10.37032 -24.55581,-17.10086 -29.51298,-21.84243 -3.05675,-2.92382 -7.44388,-7.06637 -9.74917,-9.20567 -5.65255,-5.24554 -14.6609,-16.0034 -18.63308,-22.25182 -2.25192,-3.54238 -4.75144,-5.63341 -8.15295,-6.82059 -6.19005,-2.1604 -10.08225,-5.6787 -13.31725,-12.03795 -1.39894,-2.75 -4.43795,-7.111 -6.75335,-9.6911 C 146.89441,412.10379 145,409.11769 145,408.0481 c 0,-1.06959 -1.60218,-4.02109 -3.5604,-6.5589 -7.09719,-9.1978 -20.93274,-29.06053 -26.06087,-37.41374 -9.76254,-15.90222 -16.540304,-39.80917 -16.606309,-58.57486 -0.01755,-4.98763 -0.833295,-7.57108 -3.749675,-11.875 -2.049989,-3.02533 -3.74368,-6.90685 -3.763756,-8.6256 -0.02007,-1.71875 -0.387586,-5.24931 -0.816688,-7.8457 l -0.780183,-4.7207 -13.493155,13.1582 C 67.983566,293.574 61.674922,298.75 60.1314,298.75 c -3.658375,0 -11.427761,-7.2835 -14.000564,-13.125 -4.079977,-9.2635 -7.336647,-47.35923 -6.89235,-80.625 0.45765,-34.2655 1.034498,-36.47981 12.6853,-48.69446 6.773985,-7.10181 7.141898,-7.298 15.320935,-8.16974 4.609154,-0.49125 9.309302,-1.38794 10.444774,-1.99264 C 80.213391,144.79905 79.878354,140.7237 76.465113,131.25 72.95912,121.51886 71.4002,91.993648 74.116609,86.770429 78.419531,78.496596 92.739702,70 102.3815,70 c 10.77366,0 24.05613,8.890461 25.82229,17.28384 0.38667,1.837638 1.741,7.386164 3.0096,12.330058 2.50893,9.777682 1.93088,16.221092 -1.82782,20.374412 -1.14755,1.26804 -1.90063,3.61754 -1.67352,5.2211 0.39295,2.77439 1.01829,2.95092 12.91295,3.6449 6.875,0.40113 14.46875,1.3371 16.875,2.07995 2.40625,0.74284 7.67682,1.72918 11.71239,2.19185 9.00547,1.03248 16.51419,4.14318 22.33282,9.25201 4.61534,4.05232 14.70479,18.58038 14.70479,21.17379 0,0.82644 3.50166,3.76584 7.78148,6.53201 4.2798,2.76618 9.33626,6.91565 11.23657,9.22107 4.73668,5.7464 14.42389,11.94501 18.66773,11.94501 5.64427,0 18.73206,5.52575 27.8131,11.74287 9.94432,6.80815 21.1166,12.29949 24.91453,12.24588 1.49138,-0.021 4.2482,-0.42825 6.12628,-0.90488 2.87053,-0.7285 3.59992,-0.3794 4.57705,2.19062 0.81922,2.15473 4.33141,4.59862 11.8978,8.27886 9.48322,4.61257 10.73546,5.60967 10.73546,8.54822 0,1.82962 0.89143,4.31158 1.98094,5.51548 3.01995,3.33702 3.66725,11.45067 1.29317,16.20961 -1.11326,2.23159 -2.02411,5.94526 -2.02411,8.25263 0,2.64832 -0.9218,4.98445 -2.5,6.33575 -1.375,1.17731 -2.5,2.8834 -2.5,3.79131 0,2.61336 -11.33298,14.03516 -16.5841,16.71409 -7.57017,3.86202 -17.18119,5.16346 -26.13764,3.53935 -9.87567,-1.7908 -15.31991,-4.62878 -21.90596,-11.41914 -7.62095,-7.85737 -10.78747,-15.83692 -10.82975,-27.29065 -0.03,-8.13697 0.49546,-10.40669 3.97941,-17.1875 2.20771,-4.29687 3.58405,-7.869 3.05854,-7.93805 -0.52552,-0.0691 -4.34753,-0.27195 -8.49333,-0.45086 -4.1458,-0.17893 -9.20829,-1.17224 -11.25,-2.20739 -2.0417,-1.03514 -5.91913,-2.2823 -8.61653,-2.77146 -3.91148,-0.70933 -6.69517,-2.7414 -13.75,-10.03735 -4.8651,-5.03138 -11.37689,-10.7365 -14.47064,-12.67806 -3.09375,-1.94155 -8.89075,-5.99444 -12.88221,-9.00642 l -7.25722,-5.47632 1.99239,4.76846 c 1.09581,2.62265 2.85951,5.72663 3.91934,6.89771 1.5641,1.72832 1.64596,2.65433 0.4347,4.91759 -2.24399,4.19293 0.28859,10.95975 7.74069,20.68254 7.8486,10.2401 15.11391,25.55936 15.55359,32.79555 0.18158,2.98839 1.14936,6.36339 2.15062,7.5 3.07267,3.48802 10.82897,19.91662 12.5168,26.5118 1.11356,4.35121 1.28919,8.97447 0.58019,15.27251 -2.27677,20.22415 -2.48227,23.2606 -2.3455,34.65725 0.18073,15.0625 2.24146,38.75419 4.07723,46.875 1.54022,6.81335 7.36248,15.098 11.52184,16.39471 2.34691,0.73167 4.11155,2.02685 12.75661,9.363 1.30127,1.10424 4.92287,4.77197 8.04802,8.15052 8.40542,9.087 16.74838,14.21677 23.12183,14.21677 6.56865,0 18.94713,7.81226 33.87134,21.37678 5.5964,5.08652 12.42773,11.05833 15.18074,13.27068 6.5746,5.28343 11.519,15.22462 11.519,23.16004 0,7.29119 -1.90875,11.23443 -8.5507,17.66468 -6.04071,5.84818 -8.25455,5.62567 -17.61089,-1.77009 l -6.40224,-5.06068 5.21227,9.7418 c 2.86675,5.35798 6.25611,10.90304 7.53191,12.32235 5.15114,5.73054 0.69356,13.1624 -13.84844,23.08868 -6.34167,4.32879 -7.49122,5.71967 -8.2014,9.92315 -0.45427,2.68877 -1.69522,5.61012 -2.75767,6.49189 -2.23595,1.85567 -12.95428,3.06451 -22.87284,2.57965 z m 31.99226,-68.10142 c -1.13446,-1.54688 -2.84414,-4.51143 -3.79927,-6.58788 -2.11417,-4.5962 -6.34618,-8.61602 -7.99682,-7.59586 -0.66625,0.41176 -3.56388,-2.06119 -6.4392,-5.49542 -2.87531,-3.43425 -6.72502,-6.67885 -8.55491,-7.21023 -6.35575,-1.8456 -15.26789,-8.29924 -15.94737,-11.54811 -1.06242,-5.07974 -2.24509,-6.53604 -9.19048,-11.31687 -4.27376,-2.94183 -9.14882,-5.01902 -13.81682,-5.88712 -4.12239,-0.76665 -11.09742,-3.54256 -16.27865,-6.47858 -4.98612,-2.82544 -9.23913,-4.9637 -9.45115,-4.75168 -1.10474,1.10472 6.65668,8.85379 11.16262,11.14484 9.38533,4.77197 19.45524,12.26092 28.018,20.83685 19.1934,19.22289 42.94979,37.27665 47.00404,35.72088 1.04275,-0.40013 2.91445,-0.13506 4.15932,0.58907 3.2784,1.90699 3.4305,1.71597 1.13069,-1.41989 z"
       id="path3511"
       inkscape:connector-curvature="0" />
    <path
       style="fill:#98d2ee"
       d="m 265.81874,566.46407 c -1.13782,-1.25726 -2.06874,-3.11672 -2.06874,-4.13215 0,-2.69371 5.9185,-10.27911 8.87304,-11.37207 1.49159,-0.55176 2.38442,-1.84484 2.1659,-3.1368 -0.20449,-1.20892 0.72182,-4.44805 2.05846,-7.19805 3.69454,-7.60115 2.95449,-18.7647 -1.5562,-23.47518 -4.53751,-4.73848 -19.16381,-12.68045 -28.0887,-15.25192 -3.94487,-1.13661 -9.68897,-3.85675 -12.76465,-6.04474 -3.07569,-2.18799 -9.69181,-6.85958 -14.7025,-10.38134 -11.46677,-8.05937 -34.34649,-30.54198 -40.4756,-39.77308 -3.47676,-5.23639 -6.09655,-7.64426 -10.37726,-9.53781 -7.03093,-3.11012 -10.69653,-6.44315 -12.75404,-11.5969 -0.86491,-2.16647 -3.72264,-6.31709 -6.35051,-9.2236 C 147.15008,412.43391 145,409.20995 145,408.17606 c 0,-1.85936 -2.20726,-5.17734 -14.3758,-21.6099 -11.14527,-15.0507 -20.42485,-30.85759 -24.44598,-41.6414 -3.92015,-10.51301 -7.357745,-29.11392 -7.403917,-40.06282 -0.01739,-4.12422 -0.953209,-7.13189 -3.290812,-10.57654 -2.123702,-3.12945 -3.711031,-7.80848 -4.537098,-13.37416 l -1.27059,-8.56069 -12.025402,11.76866 c -17.21854,16.85091 -18.782637,17.33994 -26.860912,8.39826 -5.558849,-6.15298 -6.414627,-9.44998 -9.413692,-36.26747 -1.866238,-16.68782 -2.373377,-28.6961 -2.138668,-50.6405 0.300387,-28.08521 0.385351,-28.9352 3.592626,-35.94081 1.806729,-3.94642 6.149731,-10.20437 9.651116,-13.90657 6.149885,-6.5026 6.651141,-6.76164 14.755141,-7.62538 13.721742,-1.4625 14.879553,-3.03635 10.13094,-13.77139 -1.949858,-4.40798 -2.973967,-10.548 -3.946971,-23.66401 -0.722659,-9.74136 -0.944202,-19.184666 -0.492317,-20.985116 1.262723,-5.031095 6.470315,-10.436328 14.318847,-14.862282 5.905625,-3.330308 8.527202,-4.037837 15.282069,-4.124425 7.25028,-0.09294 8.89517,0.371363 14.84759,4.19102 7.2211,4.63377 11.35055,10.101813 11.38798,15.079463 0.0129,1.71875 0.83409,5.375 1.8248,8.125 2.70323,7.50348 2.43297,17.12434 -0.58895,20.96609 -1.375,1.74803 -2.5,4.63638 -2.5,6.41857 l 0,3.24034 11.95718,0 c 6.57645,0 13.00952,0.5632 14.29572,1.25155 1.28621,0.68836 6.7336,1.83695 12.10533,2.55242 18.31227,2.43905 29.112,9.91272 37.75388,26.12655 2.96354,5.56015 5.47344,8.30919 10.45624,11.45245 3.60616,2.27485 8.38121,6.21394 10.61124,8.75353 5.3495,6.09209 14.94261,12.3569 18.97221,12.38986 5.47064,0.0447 19.71263,5.72768 26.09446,10.41238 7.00094,5.13916 24.64085,14.56126 27.26137,14.56126 0.97696,0 2.81914,-0.65128 4.09375,-1.44728 2.92976,-1.82966 6.38928,-0.56748 6.42891,2.34555 0.0204,1.49537 2.58635,3.42061 7.8125,5.86161 10.76469,5.02791 14.65721,7.95963 14.65721,11.03931 0,1.44592 0.89143,3.61396 1.98094,4.81786 3.00232,3.31755 3.64645,11.29386 1.28136,15.86744 -1.10676,2.14025 -2.0123,5.80591 -2.0123,8.14591 0,2.80566 -1.06421,5.40285 -3.125,7.62647 -1.71875,1.85457 -3.125,3.90383 -3.125,4.55393 0,2.89276 -10.03558,11.89261 -16.875,15.13341 -6.29731,2.98394 -9.10358,3.55381 -17.5,3.55381 -8.40556,0 -11.20388,-0.56953 -17.55046,-3.57201 -19.76792,-9.3519 -27.90342,-32.38969 -18.28845,-51.78854 4.23396,-8.5423 3.67137,-10.18288 -3.08888,-9.0076 -2.46859,0.42918 -7.51996,-0.48975 -13.59705,-2.47351 -5.3181,-1.736 -10.4971,-3.15636 -11.50887,-3.15636 -1.01179,0 -5.86187,-4.16038 -10.77795,-9.24529 -4.91609,-5.0849 -11.46959,-10.8468 -14.56334,-12.8042 -3.09375,-1.95741 -8.693,-5.93215 -12.44279,-8.83276 -3.74979,-2.90061 -7.05231,-5.03933 -7.33894,-4.75269 -0.28662,0.28663 1.17752,3.531 3.25366,7.20971 2.89239,5.12504 3.48205,7.21169 2.52244,8.9264 -2.05092,3.6648 1.17692,12.25635 7.38285,19.65102 7.19001,8.56722 15.71263,26.21252 16.13511,33.40625 0.17551,2.98838 1.1099,6.36338 2.07643,7.5 2.19419,2.58029 10.02409,19.1495 12.1615,25.73551 1.5215,4.6882 1.13513,18.77199 -0.92814,33.83105 -1.85967,13.57316 1.92034,65.01749 5.13742,69.91794 3.17998,4.84397 9.2897,10.70706 11.15743,10.70706 1.02518,0 7.40888,5.3584 14.18599,11.90755 16.00518,15.4668 20.2042,18.30831 28.77333,19.47116 9.3662,1.27103 17.24867,6.43069 36.08655,23.62129 4.89696,4.46875 10.90618,9.64504 13.35384,11.50286 6.17947,4.69038 10.98332,14.75895 10.98332,23.02039 0,5.4507 -0.67271,7.40896 -4.0625,11.82594 -2.23438,2.91145 -5.54105,6.38899 -7.34816,7.72787 -3.16944,2.34823 -3.44864,2.357 -7.89324,0.2479 C 319.2161,511.84316 305,498.16954 305,495.62091 c 0,-2.63187 -6.23171,-9.37091 -8.66545,-9.37091 -1.20626,0 -4.56474,-2.8125 -7.46329,-6.25 -3.4906,-4.13964 -6.23471,-6.25 -8.12694,-6.25 -1.57127,0 -3.87496,-1.125 -5.11932,-2.5 -1.24436,-1.375 -2.93186,-2.5 -3.75,-2.5 -2.2468,0 -5.34329,-3.98229 -5.82353,-7.48944 -0.69533,-5.07791 -13.98878,-14.27949 -23.2664,-16.10475 -4.18127,-0.82261 -11.65883,-3.72545 -16.6168,-6.45074 -4.95797,-2.72528 -9.24965,-4.95507 -9.53705,-4.95507 -0.28741,0 0.4539,1.65303 1.64737,3.6734 1.19346,2.02036 5.02213,5.20831 8.50817,7.08432 11.65608,6.27275 20.20263,12.71287 30.87318,23.26397 20.1777,19.95183 40.19806,34.72831 47.05271,34.72831 4.44864,0 6.7169,2.37722 11.4328,11.982 1.99645,4.06615 5.08671,9.33041 6.86724,11.69835 1.78052,2.36794 3.23731,5.31945 3.23731,6.5589 0,3.18841 -8.02184,11.67311 -16.44314,17.39191 -6.2072,4.21523 -7.29737,5.5648 -8.20578,10.15835 -1.43863,7.27464 -4.21448,8.41944 -20.46984,8.44207 -11.25764,0.0156 -13.55401,-0.32439 -15.3125,-2.26751 z"
       id="path3509"
       inkscape:connector-curvature="0" />
    <path
       style="fill:#6ac6f4"
       d="m 265.81874,566.46407 c -1.13782,-1.25726 -2.06874,-3.13542 -2.06874,-4.17371 0,-2.83124 6.57829,-10.94264 8.91671,-10.99481 2.20995,-0.0493 4.21272,-5.04555 2.02253,-5.04555 -0.73838,0 -0.50879,-0.97004 0.51773,-2.1875 2.91278,-3.45454 4.56094,-10.85804 3.87647,-17.41291 -0.49385,-4.7294 -1.59242,-7.03233 -5.10995,-10.71209 -2.46448,-2.57813 -5.03959,-4.6875 -5.72249,-4.6875 -0.68289,0 -3.24061,-1.36346 -5.68381,-3.02991 -2.4432,-1.66645 -8.55265,-4.26231 -13.57654,-5.76858 -5.0239,-1.50626 -11.7739,-4.63965 -15,-6.96309 -3.22611,-2.32342 -9.80315,-6.96606 -14.61565,-10.31696 -11.00859,-7.66517 -34.51438,-30.88672 -40.09415,-39.60931 -3.31526,-5.1826 -5.66565,-7.26286 -10.92793,-9.67201 -6.19198,-2.83479 -12.10292,-8.71917 -12.10292,-12.04853 0,-0.76861 -2.17663,-3.77552 -4.83694,-6.68203 -2.66031,-2.90652 -5.27,-6.6779 -5.7993,-8.38086 -0.5293,-1.70294 -2.61251,-5.35919 -4.62937,-8.125 -22.58658,-30.97397 -30.04751,-42.92374 -34.72261,-55.61338 -3.87245,-10.51099 -7.444992,-30.31171 -7.48888,-41.50693 -0.01716,-4.37798 -0.802201,-6.76775 -3.133267,-9.53806 -2.239446,-2.66142 -3.495587,-6.2865 -4.486122,-12.94639 l -1.375756,-9.24992 -10.826377,11.06545 C 66.775624,295.30912 61.207271,299.30164 57.61617,298.16187 53.721901,296.92587 46.496082,288.05602 45.070486,282.76176 41.908439,271.01881 39.110781,232.97534 39.35201,205 c 0.236153,-27.38654 0.328134,-28.31383 3.503209,-35.31644 1.793379,-3.95529 6.117782,-10.21239 9.609786,-13.90466 6.010681,-6.35541 6.763805,-6.75904 14.129546,-7.57261 15.06865,-1.66437 15.762368,-2.56029 10.752322,-13.88633 -2.039573,-4.61078 -2.95697,-10.43551 -3.96699,-25.18712 l -1.313862,-19.189275 3.65449,-5.284283 C 78.394131,80.793306 81.891259,78.08728 88.75,74.57725 c 8.406716,-4.30222 10.073517,-4.729 16.1381,-4.132111 11.36194,1.118264 23.8619,11.392407 23.8619,19.612902 0,1.475205 0.90761,5.804284 2.01693,9.620176 2.31478,7.962583 1.76748,16.830673 -1.24411,20.158433 -1.11255,1.22936 -2.02282,3.73779 -2.02282,5.57427 l 0,3.33908 11.95717,0 c 6.57645,0 12.90807,0.5089 14.07026,1.13087 1.16218,0.62199 7.40703,2.04448 13.87744,3.16109 19.0301,3.28405 25.68028,7.99633 35.8673,25.41535 3.51559,6.01139 6.33413,9.13971 10.33159,11.46713 3.02341,1.76031 7.80879,5.65681 10.63418,8.65888 7.18041,7.62945 14.22767,12.1506 20.44923,13.11914 9.08988,1.41508 16.68719,4.57668 25.85505,10.75954 17.89223,12.06662 22.47218,13.7673 33.20778,12.33107 2.3369,-0.31263 3.22584,0.21242 3.52484,2.08193 0.25534,1.59646 2.74006,3.61697 6.875,5.59059 C 326.10551,228.172 330,231.06447 330,234.23762 c 0,1.62595 0.82886,3.64417 1.84192,4.48493 3.02768,2.51274 3.68055,9.54871 1.43231,15.43566 -1.11333,2.9152 -2.02423,7.0899 -2.02423,9.2771 0,2.61651 -0.80592,4.40805 -2.35621,5.23774 -1.29593,0.69355 -2.72123,2.71534 -3.16736,4.49286 -1.35852,5.41275 -10.12857,13.72438 -18.39633,17.43473 -6.91627,3.10383 -8.71391,3.38572 -18.43435,2.89073 -17.28622,-0.88026 -27.78565,-7.76238 -34.60312,-22.68148 -2.98508,-6.5324 -3.28415,-8.4313 -2.7952,-17.74707 0.47182,-8.98942 1.09041,-11.30527 4.47342,-16.7474 2.40908,-3.87538 3.34215,-6.3946 2.41503,-6.52033 -0.83099,-0.11275 -4.60922,-0.303 -8.39607,-0.4229 -3.78685,-0.11988 -8.84935,-1.13293 -11.25,-2.25119 -2.40065,-1.11826 -6.83811,-2.57424 -9.86102,-3.23551 -4.5129,-0.9872 -6.83334,-2.68382 -12.96999,-9.48315 -4.11057,-4.55447 -10.91852,-10.56328 -15.12879,-13.35292 -4.21025,-2.78963 -10.39612,-7.07821 -13.74638,-9.53016 -5.79028,-4.23772 -6.04583,-4.30822 -5.16998,-1.42617 0.50678,1.66755 1.9638,4.75592 3.23784,6.86305 1.6104,2.66345 2.10111,5.15798 1.60997,8.18447 -0.92632,5.70826 1.81215,12.08576 8.69405,20.24719 7.77545,9.22111 17.01072,29.77009 15.33825,34.12846 -0.40378,1.05223 0.57159,3.7009 2.1675,5.88594 1.5959,2.18504 5.10089,8.75405 7.78887,14.5978 4.30767,9.36505 4.88651,11.73672 4.88126,20 -0.004,5.15625 -0.50963,13.59375 -1.12524,18.75 -1.4984,12.55039 -1.03299,32.86191 1.2715,55.48994 1.87289,18.39016 1.95038,18.68157 6.41714,24.13266 2.48674,3.03475 6.35496,6.28385 8.59602,7.22024 2.24108,0.93637 8.61514,6.28587 14.16459,11.88778 12.84768,12.96912 21.32314,18.76938 27.42622,18.76938 7.64487,0 20.66608,8.44192 38.40852,24.90107 4.87582,4.52317 10.29198,9.1831 12.03591,10.35544 5.33321,3.58519 9.96736,12.93945 10.65516,21.50798 0.57842,7.20591 0.36805,7.97465 -3.59592,13.14094 -2.31566,3.01801 -5.68884,6.58275 -7.49595,7.92163 -3.16944,2.34823 -3.44864,2.357 -7.89324,0.2479 C 319.2161,511.84316 305,498.16954 305,495.62091 c 0,-2.56839 -6.20514,-9.37083 -8.54861,-9.37152 -1.14202,-3.4e-4 -4.49823,-2.81284 -7.45824,-6.25 -2.96002,-3.43717 -6.2768,-6.24939 -7.37063,-6.24939 -1.09381,0 -5.00011,-1.99881 -8.68063,-4.44181 -4.95552,-3.28929 -6.69189,-5.21007 -6.69189,-7.4026 0,-1.93169 -1.84649,-4.55227 -5.3125,-7.53962 -7.07058,-6.09412 -10.86511,-7.95748 -19.40611,-9.52966 -3.93602,-0.72451 -7.71889,-1.76131 -8.40639,-2.30401 -1.46866,-1.15933 -15.75415,-8.7823 -16.45806,-8.7823 -0.26463,0 0.38865,1.68197 1.45172,3.73774 1.06306,2.05575 4.17189,4.88 6.90849,6.27611 11.36164,5.79627 22.59256,14.23867 34.85339,26.19965 19.80047,19.31621 38.0745,32.5365 44.9743,32.5365 4.18168,0 6.38881,2.5232 12.02757,13.75 1.89916,3.78125 4.78382,8.46504 6.41032,10.40841 1.62649,1.94336 2.95727,4.63703 2.95727,5.9859 0,3.19078 -7.57608,11.1853 -16.25,17.14753 -5.80824,3.99243 -7.08335,5.57899 -8.21774,10.22485 -1.77446,7.2673 -5.05318,8.60445 -21.27602,8.67694 -10.68277,0.0478 -12.93617,-0.29434 -14.6875,-2.22955 z"
       id="path3507"
       inkscape:connector-curvature="0" />
    <path
       style="fill:#55b8e8"
       d="m 265.81874,566.46407 c -1.13782,-1.25726 -2.06874,-3.13542 -2.06874,-4.17371 0,-2.83124 6.57829,-10.94264 8.91671,-10.99481 2.20995,-0.0493 4.21272,-5.04555 2.02253,-5.04555 -0.73838,0 -0.50879,-0.97004 0.51773,-2.1875 2.91362,-3.45554 4.56099,-10.85912 3.87458,-17.41291 -0.47148,-4.50153 -1.61349,-7.06227 -4.51728,-10.12918 -4.86697,-5.14037 -14.50947,-10.63319 -24.68217,-14.06012 -10.0569,-3.38793 -16.29035,-6.59368 -21.40985,-11.01067 -2.25349,-1.94426 -7.50583,-5.82657 -11.67186,-8.62736 -9.68463,-6.51086 -31.17885,-27.86891 -37.24712,-37.01112 -3.68058,-5.54505 -6.09443,-7.6928 -11.34517,-10.09455 -6.09271,-2.78687 -11.9581,-8.5605 -11.9581,-11.77103 0,-0.71143 -2.20729,-3.84383 -4.90509,-6.9609 -2.6978,-3.11706 -5.27867,-6.84446 -5.73529,-8.2831 C 144.73545,405.94727 136.3335,393.24577 129.10435,383.75 109.32082,357.76355 98.75,329.74913 98.75,303.30594 c 0,-3.38234 -1.058203,-6.57355 -3.208874,-9.67697 -2.094835,-3.02285 -3.652398,-7.61868 -4.4864,-13.23783 l -1.277526,-8.60742 -10.2011,10.5038 c -11.635071,11.98032 -18.576761,16.94813 -22.113624,15.82557 -3.816798,-1.2114 -10.789881,-10.2458 -12.332338,-15.97792 -3.297239,-12.25325 -6.046797,-48.81585 -5.75367,-76.51017 0.347385,-32.82059 1.48311,-37.26035 12.604318,-49.27259 6.669765,-7.20414 6.892295,-7.32352 15.206517,-8.15821 4.640733,-0.4659 9.422072,-1.13185 10.625197,-1.47989 2.70497,-0.78247 2.944831,-6.86132 0.426971,-10.82079 -2.87871,-4.52692 -4.553096,-15.69523 -4.842351,-32.29894 -0.269376,-15.46272 -0.235864,-15.667947 3.324326,-20.357373 2.363129,-3.112675 6.649711,-6.224083 12.5,-9.073102 7.771014,-3.784389 9.763826,-4.254349 15.666654,-3.694625 11.34425,1.075692 23.8619,11.351606 23.8619,19.588561 0,1.475205 0.90761,5.804284 2.01693,9.620176 2.31478,7.962583 1.76748,16.830673 -1.24411,20.158433 -1.11255,1.22936 -2.02282,3.73779 -2.02282,5.57427 l 0,3.33908 10.625,0 c 5.84375,0 10.76562,-0.095 10.9375,-0.21123 0.17187,-0.11612 1.54245,0.44703 3.04572,1.25155 1.50328,0.80454 7.08142,2.06757 12.39588,2.80674 20.04102,2.78745 28.88588,8.62375 38.61172,25.47804 3.71923,6.44517 6.39427,9.46425 10.49909,11.84934 3.02955,1.76031 7.53368,5.38006 10.00918,8.04388 6.91525,7.44134 15.13686,13.27885 18.74316,13.30804 5.70091,0.0461 20.3436,5.96619 28.81505,11.64994 17.68853,11.86776 21.77754,13.35906 32.5677,11.87773 2.34794,-0.32235 3.21739,0.19262 3.49653,2.07097 0.24496,1.64841 2.95427,3.77737 7.95371,6.25 13.01004,6.43449 14.79976,7.80353 14.79976,11.32091 0,1.77797 0.82165,4.05431 1.8259,5.05855 2.99387,2.99389 3.67482,9.85885 1.42521,14.3683 -1.10061,2.20624 -2.00111,5.87175 -2.00111,8.14559 0,2.35353 -0.98328,5.09745 -2.28284,6.37045 -1.25556,1.22991 -3.00879,4.05825 -3.89606,6.2852 -1.9222,4.82451 -9.14813,11.61763 -16.57728,15.58436 -4.56945,2.43983 -7.22996,2.86664 -17.86882,2.86664 -10.58019,0 -13.31059,-0.43314 -17.77775,-2.82018 -8.37357,-4.47443 -13.68834,-9.877 -17.78871,-18.08257 -6.07892,-12.16499 -5.00067,-27.60191 2.70638,-38.74642 l 2.35073,-3.39917 -3.20289,-0.80387 c -1.76157,-0.44214 -4.45947,-0.46918 -5.99532,-0.0601 -2.38165,0.63435 -14.19848,-2.5111 -25.91744,-6.89881 -1.71875,-0.64352 -5.65625,-4.1806 -8.75,-7.86019 -3.09375,-3.67957 -9,-8.96977 -13.125,-11.756 -4.125,-2.78622 -10.80151,-7.43763 -14.8367,-10.33646 -6.71785,-4.82603 -7.25937,-5.0161 -6.41997,-2.25341 0.5042,1.65945 1.95912,4.7412 3.23316,6.84832 1.6104,2.66345 2.10111,5.15799 1.60997,8.18448 -0.90716,5.59022 1.75473,11.96686 8.17293,19.57847 6.26474,7.4296 15.53346,26.91365 15.65177,32.90204 0.0489,2.47286 0.81139,5.3664 1.6945,6.43009 2.06682,2.4894 8.43908,15.64538 11.57744,23.90243 2.92899,7.70619 3.0156,12.23057 0.5867,30.64619 -1.90446,14.43943 -1.42624,30.58841 1.83183,61.85865 1.2315,11.8198 1.49787,12.5877 6.3956,18.4375 2.81081,3.3572 5.78083,6.10401 6.60003,6.10401 2.1234,0 8.86113,5.57832 18.27085,15.12684 11.51845,11.68836 18.86642,16.57111 24.61247,16.3551 2.81907,-0.106 6.69961,0.98245 9.92016,2.78245 8.07819,4.51499 23.72356,16.63371 28.27931,21.90484 2.23848,2.58996 6.38879,6.16065 9.22291,7.93486 10.70113,6.6991 17.20935,23.99323 12.47479,33.14888 -1.12722,2.17981 -3.78475,5.93963 -5.90561,8.35516 -4.42556,5.04044 -8.4281,5.62982 -14.22214,2.09425 C 316.5428,509.44859 305,497.37606 305,495.0529 c 0,-2.69979 -5.88431,-8.80279 -8.48809,-8.80354 -1.1753,-3.4e-4 -4.55875,-2.81284 -7.51876,-6.25 -2.96002,-3.43714 -6.2768,-6.24936 -7.37063,-6.24936 -1.09381,0 -5.00011,-1.99881 -8.68063,-4.44181 -4.80411,-3.18879 -6.69189,-5.23857 -6.69189,-7.26614 0,-5.53497 -12.8874,-14.91985 -23.50066,-17.11367 -3.91839,-0.80996 -11.10983,-3.65644 -15.98098,-6.32552 -4.87115,-2.66907 -9.24497,-4.85286 -9.7196,-4.85286 -2.6768,0 3.86464,7.91186 8.8957,10.75932 14.41892,8.16078 22.54778,14.16788 32.02609,23.66679 19.6584,19.70113 39.29183,34.32389 46.08537,34.32389 4.36409,0 6.93897,2.73725 12.31249,13.0889 2.13098,4.10515 5.2261,9.07018 6.87805,11.03341 1.65195,1.96323 3.00354,4.63178 3.00354,5.9301 0,3.36588 -6.72826,10.58037 -15.28896,16.39383 -7.2018,4.89063 -8.82347,7.06637 -10.24199,13.74135 -0.97473,4.5866 -6.01675,6.06241 -20.71185,6.06241 -10.15391,0 -12.45528,-0.37078 -14.18846,-2.28593 z"
       id="path3505"
       inkscape:connector-curvature="0" />
    <path
       style="fill:#2eb1f3"
       d="m 266.42801,566.73399 c -2.21941,-1.55454 -2.69499,-2.74619 -2.07762,-5.20598 1.11149,-4.42851 5.83392,-10.12576 8.46211,-10.20885 1.20312,-0.038 2.1875,-0.58566 2.1875,-1.21692 0,-0.63128 0.37684,-2.1298 0.83742,-3.33007 0.63365,-1.65126 0.40553,-1.92802 -0.9375,-1.13736 -1.27733,0.75199 -1.21128,0.37143 0.23558,-1.35745 3.38785,-4.04819 4.73244,-10.05401 3.95349,-17.65889 -0.61714,-6.0251 -1.39138,-7.8232 -4.60297,-10.69 -5.52723,-4.93386 -15.53966,-10.41466 -24.60392,-13.46818 -9.56024,-3.22062 -16.71494,-6.79313 -19.81683,-9.89502 -1.28206,-1.28206 -6.46185,-5.1304 -11.51063,-8.55186 -11.36754,-7.70355 -31.62149,-27.55389 -38.6012,-37.83197 -4.21874,-6.21238 -6.54249,-8.29724 -12.06687,-10.82639 -6.45007,-2.95294 -12.21922,-9.1792 -11.24595,-12.13704 0.20938,-0.63634 -1.72873,-3.06272 -4.30692,-5.39196 -2.5782,-2.32925 -5.64066,-6.73048 -6.80549,-9.78053 -1.16482,-3.05003 -2.48266,-5.54552 -2.92852,-5.54552 -0.44587,0 -1.86524,-1.82813 -3.15417,-4.0625 -1.28891,-2.23438 -4.96263,-7.4375 -8.16381,-11.5625 -3.20119,-4.125 -7.45033,-10.3125 -9.44255,-13.75 -1.99221,-3.4375 -5.3866,-8.78125 -7.54309,-11.875 C 106.49525,350.05873 98.75,321.19025 98.75,303.30594 c 0,-3.38234 -1.058203,-6.57355 -3.208874,-9.67697 -2.099948,-3.03023 -3.652712,-7.6208 -4.493199,-13.28363 l -1.284325,-8.65323 -10.194301,10.26313 c -11.787451,11.86703 -18.802612,16.9813 -21.831299,15.91567 -3.509143,-1.23466 -7.837582,-5.71561 -10.458086,-10.82656 -4.204074,-8.1995 -7.439176,-38.29604 -7.811291,-72.66935 -0.178624,-16.5 0.156291,-32.41203 0.744256,-35.36006 1.714749,-8.5977 6.048036,-16.47005 12.895958,-23.4283 5.881836,-5.9766 6.965567,-6.55172 13.82416,-7.33623 14.325947,-1.63865 14.080443,-1.5116 13.039122,-6.74795 -0.506129,-2.54511 -1.870741,-6.81171 -3.032472,-9.48135 C 74.626069,126.70455 71.848634,98.382551 72.960625,91.446301 74.600341,81.218265 89.389609,70.882979 102.5,70.803093 c 12.87706,-0.07846 26.21521,10.432853 26.26352,20.697332 0.007,1.581016 0.8512,5.635849 1.875,9.010735 2.50828,8.26828 2.33629,13.06975 -0.6432,17.95655 -1.37242,2.25099 -2.49532,5.48537 -2.49532,7.1875 0,3.03806 0.19474,3.09765 10.625,3.25104 5.84375,0.0859 11.04687,0.26569 11.5625,0.39944 0.51562,0.13375 3.1875,0.8558 5.9375,1.60454 2.75,0.74875 7.8125,1.72424 11.25,2.16777 9.00539,1.16191 14.1941,2.95051 21.01179,7.24293 5.80582,3.65535 14.42712,14.48912 17.07745,21.46 1.09968,2.89241 9.43071,9.98719 13.75863,11.717 1.01634,0.40621 3.24217,2.39557 4.94629,4.42081 5.31394,6.31525 15.09723,13.32961 18.63059,13.35762 5.81761,0.0461 20.41069,5.96379 28.88255,11.71222 13.76254,9.33831 22.67899,13.53566 26.9427,12.68305 7.59611,-1.51898 8.73937,-1.36815 9.12153,1.20337 0.24496,1.64841 2.95427,3.77738 7.95371,6.25 C 328.5556,229.73029 330,230.8725 330,234.82858 c 0,1.98842 0.82886,4.30321 1.84192,5.14397 2.97318,2.46751 3.6723,9.3637 1.40919,13.90021 -1.10061,2.20624 -2.00111,5.81153 -2.00111,8.01176 0,2.5346 -1.14505,5.23595 -3.125,7.37235 -1.71875,1.85457 -3.125,4.21349 -3.125,5.24205 0,1.02857 -2.70513,4.57525 -6.01139,7.88152 -8.42744,8.42742 -17.66296,11.79272 -30.41195,11.08165 C 266.15062,292.2113 251.25,276.64927 251.25,254.4786 c 0,-6.49983 0.75246,-9.42268 4.17794,-16.22875 l 4.17794,-8.30114 -2.94799,-0.7399 c -1.6214,-0.40695 -4.16035,-0.42286 -5.64211,-0.0354 -2.2786,0.59586 -13.89512,-2.48173 -26.01578,-6.89243 -1.71875,-0.62545 -5.65625,-4.13876 -8.75,-7.80737 -3.09375,-3.66862 -9.21954,-9.1291 -13.61286,-12.13443 -4.39333,-3.00531 -10.81855,-7.57023 -14.27829,-10.14426 -3.45972,-2.57404 -6.50751,-4.46296 -6.77285,-4.19761 -0.26535,0.26535 0.39051,2.57175 1.45748,5.12535 1.06696,2.55358 1.6206,5.15957 1.23031,5.79107 -0.39029,0.6315 0.0354,0.99361 0.9458,0.80471 1.20924,-0.2509 1.5523,1.054 1.27284,4.84147 -0.48424,6.56283 2.12021,12.81105 8.5324,20.46971 6.32605,7.55577 15.3931,26.6069 15.51133,32.59147 0.0489,2.47287 0.80372,5.35717 1.67745,6.40954 2.41433,2.90796 9.63827,18.26365 12.08584,25.69049 1.98504,6.02331 2.02843,7.97732 0.49969,22.5 -2.10505,19.99736 -1.61525,43.85869 1.41692,69.02885 0.62117,5.15625 1.16415,9.97077 1.20667,10.69895 C 227.5401,393.959 237.65016,405 239.37341,405 c 1.87029,0 7.08868,4.41662 17.90842,15.15691 11.84352,11.75657 19.22225,16.61913 24.95367,16.4444 4.98275,-0.15191 16.94861,5.435 15.75991,7.35837 -0.37467,0.60625 -0.1422,0.94769 0.51662,0.75879 1.77765,-0.50972 16.88177,10.84793 21.58641,16.23206 2.2465,2.57096 6.64314,6.36197 9.77031,8.42447 4.15529,2.74057 6.78881,5.88237 9.78351,11.67171 6.37805,12.33 5.23494,20.27854 -4.38857,30.51579 -4.47075,4.75588 -8.70511,4.41998 -16.3094,-1.29377 -7.17574,-5.39175 -10.95869,-9.79382 -14.6673,-17.06772 -1.75226,-3.43682 -3.82988,-5.48662 -6.43363,-6.34752 -2.1151,-0.69934 -5.73173,-3.62318 -8.037,-6.49741 -2.30525,-2.87424 -6.0908,-5.88484 -8.41232,-6.69023 -7.27744,-2.52467 -15.43331,-8.71287 -14.77934,-11.2137 0.37436,-1.43154 -1.04296,-3.76612 -3.95826,-6.52002 -7.28278,-6.87953 -11.5641,-9.28963 -19.36741,-10.90258 -4.02929,-0.83286 -11.34179,-3.70356 -16.25,-6.37934 -4.90822,-2.67577 -9.36035,-4.87296 -9.89363,-4.88262 -2.79109,-0.0506 3.66775,7.84319 8.78906,10.74174 14.38878,8.14371 21.72835,13.65938 33.44652,25.135 19.94758,19.53467 40.82072,34.79116 45.38587,33.17321 2.51756,-0.89226 7.58193,4.55589 11.05925,11.89731 1.71674,3.62443 4.38518,8.12443 5.92988,10 1.5447,1.87559 3.18153,4.43016 3.63743,5.67684 1.66969,4.56589 -4.04002,11.62897 -15.7948,19.53861 -5.93427,3.9931 -7.50656,6.24946 -8.88956,12.75729 -0.96389,4.53559 -6.00151,6.06241 -20.00245,6.06241 -8.47414,0 -12.15099,-0.51878 -14.28859,-2.01601 z"
       id="path3503"
       inkscape:connector-curvature="0" />
    <path
       style="fill:#00a8fd"
       d="m 266.52814,566.80412 c -1.52798,-1.07023 -2.77814,-2.64692 -2.77814,-3.50374 0,-2.47616 7.53451,-12.05038 9.48314,-12.05038 0.97177,0 1.76686,-0.5165 1.76686,-1.14776 0,-0.63128 0.37684,-2.1298 0.83742,-3.33006 0.63365,-1.65127 0.40553,-1.92803 -0.9375,-1.13737 -1.03032,0.60657 -0.8321,-0.032 0.47252,-1.5221 2.38746,-2.72696 5.2197,-10.98352 4.84106,-14.11271 -0.12475,-1.03125 -0.43476,-3.73261 -0.68885,-6.00302 -0.25409,-2.27042 -1.77058,-5.52097 -3.36999,-7.22347 -3.6956,-3.93379 -21.6507,-13.70438 -27.40466,-14.91276 -5.47155,-1.14906 -15.23515,-6.00676 -17.4591,-8.68646 -0.92239,-1.11141 -6.2308,-5.02799 -11.79648,-8.7035 -12.10977,-7.99717 -32.36501,-27.76141 -39.24997,-38.29854 -4.08693,-6.25485 -6.24343,-8.20006 -12.28814,-11.08415 -6.76807,-3.22922 -12.87454,-9.75321 -10.93986,-11.68789 0.38531,-0.38531 -1.85439,-3.21936 -4.97713,-6.29788 -3.12272,-3.07853 -6.0765,-7.20157 -6.56392,-9.16233 -0.48744,-1.96075 -2.39599,-5.53375 -4.24123,-7.94 -31.24242,-40.74115 -39.19984,-58.21766 -41.945749,-92.12352 -0.582735,-7.19549 -1.570992,-10.96569 -3.770351,-14.38388 -1.63934,-2.54782 -3.214393,-6.48532 -3.500116,-8.75 -0.285725,-2.26467 -0.925858,-6.26217 -1.422518,-8.88334 l -0.903016,-4.76572 -10.78371,10.91251 c -5.93104,6.00188 -12.668464,12.20974 -14.972053,13.79525 -3.903745,2.68686 -4.434963,2.75521 -7.817831,1.00586 -4.105087,-2.12281 -8.968004,-9.05073 -10.920042,-15.55716 -1.914582,-6.38157 -6.710328,-50.93426 -5.900717,-54.81792 1.092785,-5.24202 1.184562,-22.58629 0.164109,-31.01419 -1.812715,-14.97118 3.388233,-29.56606 14.33607,-40.22988 5.770808,-5.62108 6.927011,-6.19543 14.057371,-6.98297 13.11179,-1.44818 13.148554,-1.4685 12.179069,-6.73183 -0.465835,-2.52901 -1.444976,-5.72321 -2.17587,-7.09821 -2.137036,-4.02033 -3.91593,-15.24679 -4.72112,-29.79465 -0.721197,-13.030324 -0.625042,-13.757299 2.532239,-19.144791 2.823961,-4.818726 4.774216,-6.302567 13.976794,-10.634166 12.913801,-6.078452 17.704921,-5.889305 28.347061,1.1191 6.68262,4.400856 9.31437,8.133353 10.0514,14.255428 0.19527,1.621994 1.27748,6.004299 2.40492,9.738455 2.66949,8.841554 2.58506,12.257294 -0.45011,18.210624 -1.375,2.69698 -2.5,6.19092 -2.5,7.7643 0,2.71932 0.45035,2.8607 9.11238,2.8607 5.01181,0 12.46493,0.87364 16.5625,1.94142 4.09757,1.06779 10.54387,2.23368 14.32512,2.59085 8.67044,0.819 20.55849,6.28894 26.26982,12.08728 2.41715,2.45396 6.32408,8.07263 8.68205,12.48591 3.44348,6.44491 5.71989,8.95177 11.56657,12.73741 4.00362,2.59229 8.37301,6.24923 9.70976,8.12652 4.15,5.82812 14.96744,12.38116 22.83245,13.83153 9.56752,1.76434 14.56525,3.96955 25.17543,11.1085 13.0698,8.79388 22.53041,13.061 26.7,12.04277 6.75363,-1.64928 8.42558,-1.42033 8.80167,1.2053 0.25191,1.75872 3.57714,4.2083 10.88314,8.01722 9.00415,4.69425 10.63836,6.04074 11.33887,9.34251 0.45017,2.12178 1.52029,4.70153 2.37806,5.73278 2.84067,3.41514 3.0139,7.63846 0.62063,15.13007 -1.30131,4.07347 -2.06744,8.18443 -1.70249,9.13547 0.36495,0.95103 -0.3987,2.77097 -1.697,4.04431 -1.2983,1.27334 -3.88088,4.96907 -5.73907,8.21277 -9.36916,16.35497 -33.49669,22.02594 -51.92398,12.20429 C 258.33037,281.76306 251.25,269.73809 251.25,254.51209 c 0,-6.52425 0.74768,-9.44665 4.14261,-16.19204 4.70171,-9.34183 4.5737,-9.55339 -5.80735,-9.5975 -3.71135,-0.0158 -8.77886,-1.07955 -11.90926,-2.5 -2.99696,-1.3599 -6.48611,-2.47255 -7.75369,-2.47255 -4.08685,0 -7.91331,-2.654 -14.1888,-9.84124 -6.37085,-7.29644 -33.54596,-27.34641 -34.24049,-25.26285 -0.21717,0.65154 0.50604,2.92676 1.60714,5.05606 1.1011,2.12929 1.61085,4.50434 1.13279,5.27788 -0.53234,0.86132 -0.30648,1.05862 0.58274,0.50906 1.7869,-1.10436 3.56301,2.93086 1.79351,4.07474 -2.99069,1.93331 1.24752,12.81523 8.4933,21.80714 7.00106,8.68823 16.4152,28.96052 15.34655,33.04706 -0.44029,1.68365 0.29182,4.11169 1.936,6.42072 3.75855,5.27839 11.24891,21.45455 11.65099,25.16143 0.18642,1.71875 0.83435,3.48487 1.43982,3.92474 0.62675,0.45531 0.36465,7.99206 -0.60859,17.5 -0.94018,9.18514 -1.6944,19.79401 -1.67602,23.57526 0.0857,17.63219 1.03339,36.99395 1.86606,38.125 0.50614,0.6875 1.12216,5.45932 1.36896,10.60406 0.43587,9.08583 0.60692,9.52436 5.96508,15.29296 3.034,3.2664 6.57522,6.27498 7.86939,6.68573 2.76477,0.87751 4.37145,2.26756 18.61681,16.10676 11.31519,10.99257 19.73325,16.34035 23.97541,15.231 3.13945,-0.82098 9.80133,1.85878 13.28748,5.34493 1.43526,1.43526 2.8576,2.46893 3.16075,2.29706 0.87596,-0.49663 18.81331,13.87337 22.75996,18.23349 3.17854,3.51156 6.90304,6.60527 11.22003,9.3198 3.52151,2.21435 9.11733,13.38671 9.91913,19.80411 0.79735,6.38176 0.5744,7.20096 -3.71988,13.66863 -5.00725,7.54147 -8.86838,10.02483 -13.70079,8.81197 -3.91371,-0.98227 -17.09663,-13.03135 -19.52125,-17.84226 -3.44192,-6.8294 -6.44515,-10.43324 -8.69449,-10.43324 -1.24623,0 -4.68616,-2.79049 -7.64431,-6.20108 -3.30933,-3.81547 -6.81285,-6.51611 -9.107,-7.02 -2.0507,-0.45041 -4.33809,-1.34952 -5.08307,-1.99804 -0.74498,-0.64852 -3.21597,-2.28277 -5.49107,-3.63167 -2.41075,-1.42931 -4.04561,-3.35406 -3.91856,-4.61337 0.43125,-4.27456 -0.1784,-5.12102 -7.73005,-10.73274 -5.44803,-4.04849 -9.68955,-6.09997 -14.6875,-7.10386 -3.86504,-0.77633 -11.43778,-3.65644 -16.8283,-6.40025 -5.39053,-2.7438 -10.00312,-4.78658 -10.25019,-4.5395 -1.74958,1.74957 4.34594,7.63162 13.95847,13.46965 12.77037,7.7559 16.90025,11.09435 32.59444,26.34813 17.13973,16.65877 37.61741,30.90178 42.00688,29.21738 2.28685,-0.87754 7.53548,5.34148 10.86998,12.87967 1.41427,3.19718 3.96075,7.63461 5.65888,9.86095 1.69812,2.22637 3.0875,5.24051 3.0875,6.69812 0,4.04261 -6.0164,10.77796 -14.70309,16.46007 -5.07755,3.32132 -8.04221,6.16335 -8.4375,8.08851 -0.33517,1.63242 -0.89505,4.34906 -1.24415,6.03697 -0.83706,4.04712 -6.72494,5.66498 -20.64962,5.67408 -7.63362,0.005 -11.44798,-0.54538 -13.4375,-1.9389 z"
       id="path3501"
       inkscape:connector-curvature="0" />
  </g>
</svg>
